# xmcd
#
# Track frame offsets:
#	150
#	17117
#	32783
#	53638
#	73255
#	93181
#	110361
#	131669
#	155408
#	176495
#	197452
#	217102
#	231425
#	248746
#	266753
#
# Disc length: 3913 seconds
#
# Revision: 0
# Processed by: cddbd v1.4PL0 Copyright (c) Steve Scherf et al.
# Submitted via: dBpowerAMP V4.0
#
DISCID=d30f470f
DTITLE=Lilly Goodman - Lilly and us
DYEAR=2002
DGENRE=Ballad
TTITLE0=Siempre tu
TTITLE1=No lo se
TTITLE2=Abrigo
TTITLE3=Como algodon
TTITLE4=Tu silencio
TTITLE5=La forma de mi corazon
TTITLE6=No importa
TTITLE7=Una milla extra
TTITLE8=De tal manera
TTITLE9=! No ¡
TTITLE10=Al despertar
TTITLE11=Me has dado tu amor
TTITLE12=Misterios
TTITLE13=Juan 3;16
TTITLE14=Lugar de paz
EXTD=
EXTT0=
EXTT1=
EXTT2=
EXTT3=
EXTT4=
EXTT5=
EXTT6=
EXTT7=
EXTT8=
EXTT9=
EXTT10=
EXTT11=
EXTT12=
EXTT13=
EXTT14=
PLAYORDER=
